<?xml version="1.0" encoding="UTF-8" standalone="no"?>
<svg
   xmlns:dc="http://purl.org/dc/elements/1.1/"
   xmlns:cc="http://creativecommons.org/ns#"
   xmlns:rdf="http://www.w3.org/1999/02/22-rdf-syntax-ns#"
   xmlns:svg="http://www.w3.org/2000/svg"
   xmlns="http://www.w3.org/2000/svg"
   xmlns:sodipodi="http://sodipodi.sourceforge.net/DTD/sodipodi-0.dtd"
   xmlns:inkscape="http://www.inkscape.org/namespaces/inkscape"
   sodipodi:docname="rtassel_sandbox.svg"
   inkscape:version="1.0 (4035a4fb49, 2020-05-01)"
   id="svg8"
   version="1.1"
   viewBox="0 0 147.48998 113.78523"
   height="430.05441"
   width="557.44244">
  <defs
     id="defs2" />
  <sodipodi:namedview
     lock-margins="true"
     fit-margin-bottom="10"
     fit-margin-right="10"
     fit-margin-left="10"
     fit-margin-top="10"
     units="px"
     inkscape:snap-intersection-paths="true"
     inkscape:object-paths="true"
     inkscape:snap-global="true"
     inkscape:window-maximized="1"
     inkscape:window-y="1072"
     inkscape:window-x="-8"
     inkscape:window-height="1017"
     inkscape:window-width="1920"
     inkscape:showpageshadow="false"
     showborder="true"
     showgrid="false"
     inkscape:document-rotation="0"
     inkscape:current-layer="layer1"
     inkscape:document-units="mm"
     inkscape:cy="183.54209"
     inkscape:cx="199.3188"
     inkscape:zoom="0.98994949"
     inkscape:pageshadow="2"
     inkscape:pageopacity="0.0"
     borderopacity="1.0"
     bordercolor="#666666"
     pagecolor="#ffffff"
     id="base" />
  <metadata
     id="metadata5">
    <rdf:RDF>
      <cc:Work
         rdf:about="">
        <dc:format>image/svg+xml</dc:format>
        <dc:type
           rdf:resource="http://purl.org/dc/dcmitype/StillImage" />
        <dc:title></dc:title>
      </cc:Work>
    </rdf:RDF>
  </metadata>
  <g
     transform="translate(-27.210617,-127.18031)"
     id="layer1"
     inkscape:groupmode="layer"
     inkscape:label="Layer 1">
    <path
       id="path857"
       d="m 104.32132,134.98282 -28.607186,16.51632 v 33.03265 l 28.607186,16.51635 28.60714,-16.51635 v -33.03265 z"
       style="opacity:1;vector-effect:none;fill:#ffffff;fill-opacity:1;stroke:none;stroke-width:0.0661458;stroke-linecap:butt;stroke-linejoin:round;stroke-miterlimit:4;stroke-dasharray:none;stroke-dashoffset:0;stroke-opacity:1" />
    <g
       transform="translate(-0.37797648,-1.3229116)"
       id="g909">
      <path
         inkscape:connector-curvature="0"
         id="path5288-6"
         d="m 87.577689,152.89 -0.533108,0.7506 4.880496,3.46389 v -1.12862 C 89.994158,154.6055 87.577783,152.89019 87.577689,152.89 Z m -0.799192,1.12609 -2.456696,3.46088 0.750976,0.53301 2.456696,-3.46078 z m 1.502045,1.06622 -2.456789,3.46069 0.750975,0.53301 2.456508,-3.46078 z m 4.241837,0.0367 v 0.85728 1.12853 0.56469 0.23253 1.59162 1.58983 1.22196 0 h 0.364961 1.129471 1.129377 0.276235 c 0,0 0.387895,-2.22021 1.019786,-3.10899 0.470605,-0.66214 1.176089,-1.19291 1.93684,-1.47789 0.972321,-0.36458 3.108791,-0.20452 3.108791,-0.20452 v 6.50341 c 1.9531,0.27097 3.88675,0.7758 5.57959,1.97727 0.29522,0.20959 0.57249,0.43319 0.83453,0.66845 v -9.14912 c 0,0 2.13657,-0.16006 3.10899,0.20452 0.76028,0.28498 1.46642,0.81574 1.93684,1.47789 0.63189,0.88877 1.01969,3.10898 1.01969,3.10898 h 2.90446 v -7.18643 h -10.8554 -2.64308 z m -2.740168,1.02947 -2.456695,3.46107 0.750787,0.53273 2.456696,-3.46097 z m 1.501764,1.06584 -2.456696,3.46107 0.750693,0.53273 2.347105,-3.30627 v -0.23234 z m -7.228258,0.63782 -0.532826,0.75079 6.256219,4.44034 c 2.218244,1.57442 4.942528,1.89586 7.640213,2.11429 0,-0.009 -0.0094,-0.016 -0.01034,-0.0235 -0.138916,-0.31562 -0.277081,-0.62804 -0.416279,-0.93736 -2.482543,-0.22285 -4.832561,-0.59195 -6.680769,-1.90376 z m 7.86936,1.64134 -1.595847,2.24794 0.248978,0.17661 c 0.167677,0.11899 0.340712,0.22924 0.518258,0.33272 l 0.828611,-1.16706 z m 4.637908,0.84055 c -0.106584,0.28854 -0.207341,0.60726 -0.285446,0.90277 -0.0282,0.10752 -0.05169,0.20517 -0.07519,0.30452 0.595141,1.06387 1.110203,2.2267 1.62893,3.40731 1.19141,2.7115 2.403121,5.51699 4.840361,7.24696 2.2189,1.57488 4.94328,1.89558 7.64162,2.11401 0,-0.009 -0.009,-0.0169 -0.0113,-0.0254 -0.13854,-0.31524 -0.27689,-0.6271 -0.41562,-0.93604 -2.4833,-0.22285 -4.83351,-0.59148 -6.68228,-1.90366 -2.16758,-1.53852 -3.338503,-4.15528 -4.529725,-6.86659 -0.63612,-1.44772 -1.28023,-2.92081 -2.111378,-4.24419 z m -4.570894,2.24559 -0.06391,0.0902 c 0.06579,0.0282 0.132243,0.0564 0.199164,0.0827 a 0.59753655,0.59753655 0 0 1 -0.135627,-0.17313 z m 0.534612,0.32333 c 0.09728,0.0338 0.195404,0.0677 0.294563,0.0992 l 0.07049,-0.0992 z m 1.494432,0 -0.253584,0.35706 c 0.322666,0.0752 0.653791,0.13892 0.990273,0.19569 l 0.392312,-0.55275 z m 5.065842,1.46492 v 1.8e-4 c 0,0.009 0.0094,0.016 0.01034,0.0235 0.138728,0.3158 0.276987,0.62879 0.416091,0.9382 2.482352,0.22276 4.831992,0.59101 6.680202,1.90272 2.16749,1.53861 3.33841,4.15547 4.52973,6.86659 1.19131,2.71131 2.40293,5.51746 4.84045,7.24771 l 6.25594,4.44006 0.53283,-0.75097 -6.25594,-4.44016 c -2.16777,-1.5386 -3.33888,-4.15574 -4.5301,-6.86696 -1.19132,-2.71122 -2.40284,-5.51699 -4.84018,-7.24705 -2.21824,-1.57442 -4.94215,-1.89521 -7.639738,-2.11373 z m 2.831803,1.72978 -1.19545,1.68429 c 0.16665,0.29644 0.33874,0.58377 0.51854,0.86028 l 1.66004,-2.33903 c -0.32031,-0.078 -0.64824,-0.14615 -0.98313,-0.20554 z m 1.92058,0.4753 -2.03374,2.86573 c 0.19644,0.25284 0.4019,0.49316 0.61836,0.71921 l 2.2987,-3.2384 c -0.28479,-0.12971 -0.57982,-0.24475 -0.88332,-0.34654 z m 1.70366,0.78152 -2.43837,3.43522 c 0.1188,0.0971 0.24127,0.19014 0.36656,0.27906 0.12547,0.0893 0.25358,0.1735 0.38442,0.25405 l 2.43855,-3.43531 c -0.1188,-0.0971 -0.24146,-0.19043 -0.36693,-0.27943 -0.12529,-0.0893 -0.25387,-0.17294 -0.38423,-0.25359 z m 1.43268,1.16397 -2.29889,3.2384 c 0.28507,0.1298 0.57992,0.24456 0.8835,0.34636 l 2.03356,-2.86508 c -0.19635,-0.25284 -0.4019,-0.49327 -0.61817,-0.71968 z m 1.1822,1.51558 -1.65957,2.33836 c 0.32031,0.078 0.64824,0.14615 0.98284,0.20565 l 1.19517,-1.68401 c -0.16645,-0.29625 -0.33873,-0.58349 -0.51844,-0.86 z m -6.66555,1.98064 v 7.6701 c 0,0 -0.0611,1.007 -0.30574,1.42723 -0.20622,0.35359 -0.55163,0.63274 -0.9179,0.81517 -0.387804,0.19305 -1.274124,0.25518 -1.274218,0.25518 v 1.37601 h 5.453638 0.50257 5.45336 v -1.37601 c 0,0 -0.88642,-0.062 -1.27412,-0.25518 -0.36609,-0.18243 -0.71197,-0.46158 -0.9179,-0.81517 -0.24494,-0.42023 -0.30566,-1.42723 -0.30556,-1.42723 v -5.02477 c -1.95339,-0.27107 -3.88731,-0.7756 -5.58025,-1.97726 -0.29503,-0.2094 -0.57211,-0.43301 -0.83388,-0.66807 z m 10.48481,1.50402 c 0,0.009 0.009,0.0169 0.0113,0.0254 0.13863,0.31534 0.27651,0.62719 0.41552,0.93604 2.4832,0.22276 4.83407,0.59156 6.68284,1.90385 l 6.25594,4.44044 0.53292,-0.75061 -6.25603,-4.44052 c -2.21891,-1.57489 -4.94394,-1.89577 -7.64238,-2.11429 z m 2.6645,1.70177 -1.10898,1.5621 c 0.16477,0.29908 0.3347,0.59044 0.51178,0.87035 l 1.58738,-2.23677 c -0.32266,-0.0752 -0.65351,-0.13901 -0.99018,-0.19568 z m 1.936,0.45444 -1.97745,2.78622 c 0.19334,0.25725 0.39551,0.502 0.60849,0.73302 l 2.26195,-3.18661 c -0.28826,-0.12501 -0.5863,-0.23488 -0.89299,-0.33263 z m 1.72452,0.75163 -2.42333,3.41426 c 0.1563,0.1329 0.31712,0.26026 0.48461,0.37925 l 0.24963,0.17726 2.45632,-3.46088 -0.24945,-0.17735 c -0.16748,-0.1189 -0.34043,-0.22915 -0.51778,-0.33254 z m 1.5184,1.04281 -2.45632,3.46069 0.75078,0.53311 2.45632,-3.46106 z m 1.50157,1.06584 -2.45632,3.46079 0.75079,0.53292 2.45651,-3.46088 z m 1.50195,1.06584 -2.45651,3.46079 0.75079,0.53292 2.4567,-3.46069 z m 1.50148,1.06575 -2.45641,3.46088 0.75051,0.53283 2.45632,-3.46098 z"
         style="fill:#cad9f1;fill-opacity:1;stroke:none;stroke-width:0.264583px;stroke-linecap:butt;stroke-linejoin:miter;stroke-opacity:1" />
      <path
         inkscape:connector-curvature="0"
         id="path4196-7-8-5"
         d="m 104.69921,131.14905 -33.072853,19.09476 v 38.18918 l 33.072853,19.09475 33.07298,-19.09475 v -38.18918 z m 0,7.55716 26.52827,15.31609 v 30.63218 L 104.69921,199.97059 78.170889,184.65448 V 154.0223 Z"
         style="fill:#d35f5f;fill-opacity:1;stroke:none;stroke-width:0.0996908;stroke-linecap:butt;stroke-linejoin:bevel;stroke-miterlimit:4;stroke-dasharray:0.199382, 0.0996908;stroke-dashoffset:0;stroke-opacity:1" />
      <path
         d="m 89.508627,175.09482 c -0.18092,-0.42761 -0.197368,-0.83879 -0.197368,-1.39799 v -1.77627 c 0,-1.20062 -0.296039,-2.07231 -1.200621,-2.45058 0.805903,-0.37828 1.184182,-1.15129 1.184182,-2.33546 v -0.90459 c 0,-1.77626 -0.805903,-2.64795 -2.680851,-2.64795 h -2.730187 v 11.51284 h 1.809156 v -4.68737 h 0.624983 c 0.822351,0 1.184182,0.39472 1.184182,1.46378 v 1.80915 c 0,0.93748 0.06579,1.1184 0.164472,1.41444 z m -2.944003,-9.86815 c 0.641431,0 0.921031,0.36183 0.921031,1.18417 v 1.13484 c 0,0.92103 -0.411176,1.21708 -1.085493,1.21708 h -0.707224 v -3.53609 z"
         style="font-style:normal;font-variant:normal;font-weight:bold;font-stretch:normal;font-size:17.4987px;line-height:125%;font-family:'Bebas Neue';-inkscape-font-specification:'Bebas Neue Bold';letter-spacing:0px;word-spacing:0px;fill:#d35f5f;fill-opacity:1;stroke:none;stroke-width:0.0389933px;stroke-linecap:butt;stroke-linejoin:miter;stroke-opacity:1"
         id="path4024"
         inkscape:connector-curvature="0" />
      <path
         d="m 89.974796,165.22667 h 1.891396 v 9.86815 h 1.809156 v -9.86815 h 1.891396 v -1.64469 h -5.591948 z"
         style="font-style:normal;font-variant:normal;font-weight:bold;font-stretch:normal;font-size:17.4987px;line-height:125%;font-family:'Bebas Neue';-inkscape-font-specification:'Bebas Neue Bold';letter-spacing:0px;word-spacing:0px;fill:#333333;fill-opacity:1;stroke:none;stroke-width:0.0389933px;stroke-linecap:butt;stroke-linejoin:miter;stroke-opacity:1"
         id="path4026"
         inkscape:connector-curvature="0" />
      <path
         d="m 99.750176,163.58198 h -2.647955 l -1.842052,11.51284 h 1.661132 l 0.312496,-2.08876 h 2.220331 l 0.312496,2.08876 h 1.825606 z m -1.414437,2.03942 0.871686,5.8222 h -1.743373 z"
         style="font-style:normal;font-variant:normal;font-weight:bold;font-stretch:normal;font-size:17.4987px;line-height:125%;font-family:'Bebas Neue';-inkscape-font-specification:'Bebas Neue Bold';letter-spacing:0px;word-spacing:0px;fill:#333333;fill-opacity:1;stroke:none;stroke-width:0.0389933px;stroke-linecap:butt;stroke-linejoin:miter;stroke-opacity:1"
         id="path4028"
         inkscape:connector-curvature="0" />
      <path
         d="m 102.18843,166.34506 c 0,3.28939 3.53609,3.73345 3.53609,6.1018 0,0.82236 -0.36183,1.11839 -0.93748,1.11839 -0.57564,0 -0.93747,-0.29603 -0.93747,-1.11839 v -0.82234 h -1.71048 v 0.70722 c 0,1.84205 0.92103,2.89466 2.6973,2.89466 1.77626,0 2.69729,-1.05261 2.69729,-2.89466 0,-3.28939 -3.53609,-3.73345 -3.53609,-6.10181 0,-0.82235 0.32894,-1.13483 0.90458,-1.13483 0.57565,0 0.90458,0.31248 0.90458,1.13483 v 0.47696 h 1.71048 v -0.36183 c 0,-1.84205 -0.90458,-2.89466 -2.6644,-2.89466 -1.75982,0 -2.6644,1.05261 -2.6644,2.89466 z"
         style="font-style:normal;font-variant:normal;font-weight:bold;font-stretch:normal;font-size:17.4987px;line-height:125%;font-family:'Bebas Neue';-inkscape-font-specification:'Bebas Neue Bold';letter-spacing:0px;word-spacing:0px;fill:#333333;fill-opacity:1;stroke:none;stroke-width:0.0389933px;stroke-linecap:butt;stroke-linejoin:miter;stroke-opacity:1"
         id="path4030"
         inkscape:connector-curvature="0" />
      <path
         d="m 108.3239,166.34506 c 0,3.28939 3.53609,3.73345 3.53609,6.1018 0,0.82236 -0.36183,1.11839 -0.93748,1.11839 -0.57564,0 -0.93747,-0.29603 -0.93747,-1.11839 v -0.82234 h -1.71048 v 0.70722 c 0,1.84205 0.92103,2.89466 2.6973,2.89466 1.77626,0 2.69729,-1.05261 2.69729,-2.89466 0,-3.28939 -3.53608,-3.73345 -3.53608,-6.10181 0,-0.82235 0.32893,-1.13483 0.90457,-1.13483 0.57565,0 0.90458,0.31248 0.90458,1.13483 v 0.47696 h 1.71049 v -0.36183 c 0,-1.84205 -0.90459,-2.89466 -2.66441,-2.89466 -1.75982,0 -2.6644,1.05261 -2.6644,2.89466 z"
         style="font-style:normal;font-variant:normal;font-weight:bold;font-stretch:normal;font-size:17.4987px;line-height:125%;font-family:'Bebas Neue';-inkscape-font-specification:'Bebas Neue Bold';letter-spacing:0px;word-spacing:0px;fill:#333333;fill-opacity:1;stroke:none;stroke-width:0.0389933px;stroke-linecap:butt;stroke-linejoin:miter;stroke-opacity:1"
         id="path4032"
         inkscape:connector-curvature="0" />
      <path
         d="m 116.49879,165.22667 h 3.12492 v -1.64469 h -4.93408 v 11.51284 h 4.93408 v -1.64469 h -3.12492 v -3.37162 h 2.48348 v -1.64469 h -2.48348 z"
         style="font-style:normal;font-variant:normal;font-weight:bold;font-stretch:normal;font-size:17.4987px;line-height:125%;font-family:'Bebas Neue';-inkscape-font-specification:'Bebas Neue Bold';letter-spacing:0px;word-spacing:0px;fill:#333333;fill-opacity:1;stroke:none;stroke-width:0.0389933px;stroke-linecap:butt;stroke-linejoin:miter;stroke-opacity:1"
         id="path4034"
         inkscape:connector-curvature="0" />
      <path
         d="m 120.72873,175.09482 h 4.78605 v -1.64469 h -2.97688 v -9.86815 h -1.80917 z"
         style="font-style:normal;font-variant:normal;font-weight:bold;font-stretch:normal;font-size:17.4987px;line-height:125%;font-family:'Bebas Neue';-inkscape-font-specification:'Bebas Neue Bold';letter-spacing:0px;word-spacing:0px;fill:#333333;fill-opacity:1;stroke:none;stroke-width:0.0389933px;stroke-linecap:butt;stroke-linejoin:miter;stroke-opacity:1"
         id="path4036"
         inkscape:connector-curvature="0" />
    </g>
    <path
       style="stroke-width:0.264583"
       id="XMLID_2948_"
       d="m 50.872263,178.44627 2.366736,-8.1547 c 0.291532,-1.00922 0.0129,-2.09784 -0.730575,-2.83974 l -5.026574,-5.0283 c -1.125888,-1.12589 -2.951536,-1.12589 -4.077424,0 l -12.703557,12.70356 c -1.125892,1.12589 -1.125892,2.95153 0,4.07742 l 5.026732,5.02658 c 0.743467,0.74362 1.832091,1.02384 2.841302,0.73057 l 8.1547,-2.36673 4.219895,4.21989 9.095981,9.09599 4.14866,-4.14867 z m -5.585586,-1.43693 -6.687107,1.94075 -1.785234,-1.7835 8.627702,-8.6277 1.785229,1.7835 z"
       fill="#00d2b4" />
    <path
       style="stroke-width:0.264583"
       id="XMLID_2278_"
       d="m 64.187984,191.76214 -4.14866,4.14867 -9.095826,-9.09599 h 5.553196 l 1.371985,-1.37198 z"
       fill="#00b7a0" />
    <path
       style="stroke-width:0.264583"
       id="XMLID_2284_"
       d="m 160.33981,205.11529 -112.036765,-0.46064 5.36681,-5.36681 14.96669,-14.96668 c 1.21285,-1.21285 2.85935,-1.89442 4.57359,-1.89442 h 14.69151 l 5.12975,-5.12974 c 1.21285,-1.21285 2.85644,-1.89442 4.57094,-1.89442 h 11.922125 c 1.7145,0 3.35809,0.6813 4.57094,1.89442 l 12.38568,12.38541 h 15.74641 c 1.7145,0 3.36074,0.6813 4.57095,1.8915 z"
       fill="#ffdbaa" />
    <path
       style="stroke-width:0.264583"
       id="XMLID_2285_"
       d="m 160.33981,205.11529 -112.036765,-0.46064 5.36681,-5.36681 H 154.51236 Z"
       fill="#ffc26d" />
    <path
       sodipodi:nodetypes="cccscssscsssccscc"
       style="stroke-width:0.264583"
       id="XMLID_2286_"
       d="m 160.33981,205.11502 -8.34072,-0.0354 -7.91819,-11.50604 c -1.21285,-1.21285 -2.85644,-1.89442 -4.57094,-1.89442 h -15.74615 l -12.38541,-8.79469 c -1.39851,-0.99306 -2.85644,-1.89442 -4.57094,-1.89442 H 90.903085 c -0.6268,0 -1.24301,0.0926 -1.83171,0.26723 l 3.96055,-3.96055 c 1.21285,-1.21285 2.85644,-1.89441 4.57094,-1.89441 h 11.922125 c 1.7145,0 3.35809,0.6813 4.57094,1.89441 l 12.38541,8.79464 h 15.74642 c 1.7145,0 3.36074,0.68131 4.57094,1.89442 z"
       fill="#ffc26d" />
    <path
       style="stroke-width:0.264583"
       id="XMLID_2288_"
       d="m 164.73084,208.52524 v 20.09378 c 0,5.35596 -4.34208,9.70068 -9.69804,9.70068 H 53.610065 c -5.35596,0 -9.69804,-4.34472 -9.69804,-9.70068 v -20.09378 z"
       fill="#1475cc" />
    <path
       style="stroke-width:0.264583"
       id="XMLID_2291_"
       d="M 43.912025,208.52524 H 164.73084 v 6.82519 H 43.912025 Z"
       fill="#0057a1" />
    <path
       style="stroke-width:0.264583"
       id="XMLID_2294_"
       d="m 164.73084,208.52736 v 20.09113 c 0,5.35596 -4.34208,9.70068 -9.69804,9.70068 h -7.32393 c 5.35596,0 9.69803,-4.34472 9.69803,-9.70068 v -20.09113 z"
       fill="#0057a1" />
    <path
       style="stroke-width:0.264583"
       id="XMLID_2930_"
       d="M 168.11195,211.26235 H 40.530914 c -2.17752,0 -3.94282,-1.7653 -3.94282,-3.94282 0,-2.17752 1.7653,-3.94282 3.94282,-3.94282 H 168.11168 c 2.17752,0 3.94282,1.7653 3.94282,3.94282 2.7e-4,2.17752 -1.76503,3.94282 -3.94255,3.94282 z"
       fill="#85afe2" />
    <path
       style="stroke-width:0.264583"
       id="XMLID_2298_"
       d="m 172.05477,207.32006 c 0,1.08744 -0.44159,2.07434 -1.1557,2.78845 -0.71411,0.71146 -1.70075,1.15305 -2.78845,1.15305 h -6.4053 c 1.08744,0 2.07434,-0.44159 2.78845,-1.15305 0.71411,-0.71411 1.1557,-1.70075 1.1557,-2.78845 0,-2.17778 -1.76636,-3.94414 -3.94415,-3.94414 h 6.4053 c 2.17779,0 3.94415,1.76636 3.94415,3.94414 z"
       fill="#5592d7" />
    <g
       transform="matrix(0.26458333,0,0,0.26458333,33.564284,119.93186)"
       fill="#ffc26d"
       id="g15">
      <path
         id="XMLID_2299_"
         d="m 236.457,262.081 c -4.268,0 -7.726,-3.459 -7.726,-7.726 v -0.119 c 0,-4.267 3.459,-7.726 7.726,-7.726 4.267,0 7.726,3.459 7.726,7.726 v 0.119 c 0,4.267 -3.459,7.726 -7.726,7.726 z" />
      <path
         id="XMLID_2300_"
         d="m 266.302,275.632 c -4.268,0 -7.726,-3.459 -7.726,-7.726 v -0.119 c 0,-4.267 3.459,-7.726 7.726,-7.726 4.267,0 7.726,3.459 7.726,7.726 v 0.119 c 0,4.267 -3.459,7.726 -7.726,7.726 z" />
      <path
         id="XMLID_2301_"
         d="m 159.163,293.205 c -4.268,0 -7.726,-3.459 -7.726,-7.726 v -0.119 c 0,-4.267 3.459,-7.726 7.726,-7.726 4.267,0 7.726,3.459 7.726,7.726 v 0.119 c 0,4.266 -3.458,7.726 -7.726,7.726 z" />
    </g>
  </g>
</svg>
